Coordinates
version=1
nRows=17
nColumns=40
inDegrees=yes

Units are S.I. units (second, meters, Newtons, ...)
Angles are in degrees.

endheader
time	pelvis_tilt	pelvis_list	pelvis_rotation	pelvis_tx	pelvis_ty	pelvis_tz	hip_flexion_r	hip_adduction_r	hip_rotation_r	knee_angle_r	knee_angle_r_beta	ankle_angle_r	subtalar_angle_r	mtp_angle_r	hip_flexion_l	hip_adduction_l	hip_rotation_l	knee_angle_l	knee_angle_l_beta	ankle_angle_l	subtalar_angle_l	mtp_angle_l	lumbar_extension	lumbar_bending	lumbar_rotation	arm_flex_r	arm_add_r	arm_rot_r	elbow_flex_r	pro_sup_r	wrist_flex_r	wrist_dev_r	arm_flex_l	arm_add_l	arm_rot_l	elbow_flex_l	pro_sup_l	wrist_flex_l	wrist_dev_l
      0.43000000	     -1.42937310	      1.19106168	     -0.74028154	     -0.35597581	      0.88495268	     -1.04028170	     16.00488576	     -5.27641708	     -8.95947393	    -68.75049342	     -1.19992247	     -3.82505880	    -18.71133679	     22.63932037	     18.42807572	     -0.96715048	      8.53444791	    -32.71905409	     -0.57105522	     12.33123287	     13.24510088	      7.58178074	     -5.18301237	     -4.37166622	     -3.00419432	     -1.21280812	     -8.23368643	     -5.09453414	     33.38752384	     89.95437384	      0.00000000	      0.00000000	      0.46456972	      9.69033533	     21.13494029	     29.79321103	     89.95437384	      0.00000000	      0.00000000
      0.44000000	     -1.33913785	      1.01422029	     -0.31242007	     -0.34652295	      0.88585198	     -1.04175538	     17.35316211	     -5.00913938	     -9.20969371	    -69.12184497	     -1.20640378	     -2.59734608	    -18.66478075	     22.49280940	     17.44493143	     -0.96108337	      8.31997521	    -32.32244051	     -0.56413301	     12.72019574	     12.99169045	      7.31115647	     -5.33870441	     -4.11546770	     -3.58247749	     -1.50132741	     -8.09133531	     -5.40614663	     32.45960263	     89.95437384	      0.00000000	      0.00000000	      1.04260153	      9.99496335	     21.06466826	     30.78803364	     89.95437384	      0.00000000	      0.00000000
      0.45000000	     -1.26971055	      0.87791528	      0.07714687	     -0.33740950	      0.88666306	     -1.04333738	     18.73447147	     -4.83111118	     -9.48524519	    -69.18767202	     -1.20755268	     -1.54417825	    -18.59241202	     22.34928303	     16.53193493	     -0.98431599	      8.13443164	    -31.97948463	     -0.55814730	     13.00818090	     12.67946714	      7.02017484	     -5.52108013	     -3.89101182	     -4.11853966	     -1.78249911	     -7.96984849	     -5.76881498	     31.60544600	     89.95437384	      0.00000000	      0.00000000	      1.64511149	     10.26575440	     21.06926358	     31.85328534	     89.95437384	      0.00000000	      0.00000000
      0.46000000	     -1.21733483	      0.71636125	      0.43288437	     -0.32775449	      0.88733806	     -1.04485137	     20.04781399	     -4.70368171	     -9.87595018	    -69.03251494	     -1.20484468	     -0.84876816	    -18.56219751	     22.10571215	     15.58845559	     -0.89148545	      8.23628325	    -31.61170439	     -0.55172832	     13.26022481	     12.45133719	      6.84956350	     -5.56093792	     -3.61151928	     -4.56702213	     -2.26695296	     -7.95562156	     -5.98887383	     30.95265543	     89.95437384	      0.00000000	      0.00000000	      2.26254713	     10.49223353	     21.08233819	     32.71732584	     89.95437384	      0.00000000	      0.00000000
      0.47000000	     -0.98020381	      0.56258563	      0.92697450	     -0.31822638	      0.88832580	     -1.04628226	     20.98081574	     -4.46079336	    -10.19103369	    -68.38724188	     -1.19358254	      0.46672151	    -18.38107465	     22.12230842	     14.33626335	     -0.87255210	      7.92873999	    -31.04034760	     -0.54175627	     13.63167542	     11.84624910	      6.43625934	     -5.89689320	     -3.37646192	     -5.28958852	     -2.41153904	     -7.68680765	     -6.79977864	     29.85623677	     89.95437384	      0.00000000	      0.00000000	      2.60000974	     10.76638147	     21.25361070	     34.19801474	     89.95437384	      0.00000000	      0.00000000
      0.48000000	     -0.63159672	      0.42480101	      1.26787683	     -0.30840091	      0.88940450	     -1.04749472	     21.74008857	     -4.29450123	    -10.54392474	    -67.47224937	     -1.17761291	      1.35767355	    -18.26842652	     22.29323676	     12.89659253	     -0.73385282	      8.06845217	    -30.39418504	     -0.53047860	     13.87716123	     11.14388065	      5.92592399	     -6.27755968	     -3.15410010	     -5.84217084	     -2.66582935	     -7.51350713	     -7.40222243	     28.94441462	     89.95437384	      0.00000000	      0.00000000	      3.03610371	     11.02466550	     21.44132785	     35.41906595	     89.95437384	      0.00000000	      0.00000000
      0.49000000	     -0.75677510	      0.35402013	      1.54009997	     -0.29906268	      0.88957578	     -1.04867422	     23.11444704	     -4.22986584	    -10.81632447	    -66.47158521	     -1.16014802	      1.75642801	    -18.24668242	     22.04401107	     12.11400084	     -0.65374321	      8.33320125	    -29.92775152	     -0.52233780	     14.08909853	     10.79880086	      5.72515997	     -6.13275219	     -2.98675601	     -6.19590351	     -3.20582535	     -7.52702813	     -7.55018526	     28.41433655	     89.95437384	      0.00000000	      0.00000000	      3.62452746	     11.29207571	     21.43309695	     36.35854130	     89.95437384	      0.00000000	      0.00000000
      0.50000000	     -0.07626319	      0.13635369	      1.91410699	     -0.28861738	      0.89098308	     -1.04969485	     23.16770344	     -3.92595866	    -11.24760172	    -64.79184399	     -1.13083101	      2.49911749	    -18.15740451	     22.39764142	     10.13211456	     -0.29168469	      8.68347856	    -29.01581789	     -0.50642156	     14.20877089	      9.16847667	      4.72877869	     -6.84239353	     -2.66536468	     -6.83320341	     -3.40754401	     -7.34922098	     -8.29096013	     27.49004431	     89.95437384	      0.00000000	      0.00000000	      3.86850637	     11.57060335	     21.62839281	     37.83778195	     89.95437384	      0.00000000	      0.00000000
      0.51000000	     -0.30235359	      0.18019430	      2.22199278	     -0.27891901	      0.89067952	     -1.05095980	     24.45119965	     -4.00425958	    -11.46470318	    -63.32185353	     -1.10517483	      3.00868259	    -18.04438560	     21.98402543	      9.42517943	     -0.31691806	      9.01980676	    -28.55722362	     -0.49841758	     14.46754047	      8.72635127	      4.47786386	     -6.51515836	     -2.61661351	     -7.28510166	     -3.94945894	     -7.37986071	     -8.45066323	     26.89117069	     89.95437384	      0.00000000	      0.00000000	      4.28975512	     11.83836911	     21.60702387	     38.89077057	     89.95437384	      0.00000000	      0.00000000
      0.52000000	      0.14575145	      0.06104100	      2.54332114	     -0.26872769	      0.89149094	     -1.05174453	     24.67427260	     -3.77792479	    -11.77484252	    -61.27046701	     -1.06937138	      3.71520411	    -17.96724195	     21.94165658	      7.76652752	     -0.05588512	      9.38407039	    -27.73663819	     -0.48409566	     14.53184967	      7.32300447	      3.77634157	     -6.96961162	     -2.41215213	     -7.94717981	     -4.04161751	     -7.21609175	     -9.18558225	     25.83606741	     89.95437384	      0.00000000	      0.00000000	      4.36798499	     12.18394486	     21.81448590	     40.58626471	     89.95437384	      0.00000000	      0.00000000
      0.53000000	      0.31427444	     -0.12808729	      2.89346391	     -0.25890762	      0.89173942	     -1.05260754	     25.18566895	     -3.49148512	    -12.05713426	    -58.98499416	     -1.02948236	      4.24665336	    -17.89171835	     21.86915444	      6.56822502	      0.31543822	      9.84861877	    -27.14273695	     -0.47373013	     14.50476256	      5.93600376	      2.95022479	     -7.12690168	     -2.11033377	     -8.53513701	     -4.34872123	     -7.18623731	     -9.57527498	     25.13459035	     89.95437384	      0.00000000	      0.00000000	      4.65893245	     12.47882372	     21.97768519	     41.89550063	     89.95437384	      0.00000000	      0.00000000
      0.54000000	     -0.09600835	      0.08739624	      3.13764825	     -0.24936385	      0.89086508	     -1.05355580	     26.44371404	     -3.76426949	    -12.18338146	    -56.79490158	     -0.99125803	      4.61407600	    -17.65621103	     21.55759697	      6.11898975	      0.11464436	     10.19899850	    -26.77547382	     -0.46732018	     14.67343463	      5.60117108	      2.77588611	     -6.63072528	     -2.28454150	     -8.90337207	     -5.00684707	     -7.23786566	     -9.66980037	     24.83224061	     89.95437384	      0.00000000	      0.00000000	      5.08492498	     12.79724139	     21.94184973	     42.86890430	     89.95437384	      0.00000000	      0.00000000
      0.55000000	      0.49364319	     -0.31616988	      3.36592846	     -0.23873808	      0.89161794	     -1.05360329	     26.12140348	     -3.07621437	    -12.41456016	    -53.78402691	     -0.93870835	      5.12045332	    -17.62560770	     21.66806167	      4.29128129	      0.96996899	     11.25377741	    -25.94392490	     -0.45280691	     14.39809547	      2.87524689	      1.03815914	     -7.18285973	     -1.79086244	     -9.45557539	     -5.11203778	     -7.14747367	    -10.29485463	     23.94047370	     89.95437384	      0.00000000	      0.00000000	      5.10176557	     13.17028467	     22.14480607	     44.51146824	     89.95437384	      0.00000000	      0.00000000
      0.56000000	     -0.00600182	     -0.01279701	      3.58241881	     -0.22912703	      0.89038811	     -1.05443658	     27.29740291	     -3.49842138	    -12.61170800	    -51.24062062	     -0.89431754	      5.42408483	    -17.26317471	     21.37099080	      3.96789981	      0.64454438	     11.57645896	    -25.64750554	     -0.44763342	     14.50376399	      2.68881131	      0.91782336	     -6.59948498	     -2.08285378	     -9.82055104	     -5.77830625	     -7.19160999	    -10.41011611	     23.68313127	     89.95437384	      0.00000000	      0.00000000	      5.45520650	     13.50003037	     22.15913393	     45.53698093	     89.95437384	      0.00000000	      0.00000000
      0.57000000	      0.42048384	     -0.45103993	      3.87942880	     -0.21865558	      0.89074491	     -1.05440001	     26.93979710	     -2.80666189	    -12.87889602	    -47.81480065	     -0.83452570	      5.52934281	    -17.06801879	     21.21239486	      2.37272314	      1.42567851	     12.16033987	    -24.84502794	     -0.43362754	     14.20524735	      0.62575401	     -0.62544641	     -6.99388030	     -1.55411318	    -10.43382338	     -5.84229636	     -7.06462030	    -11.23268144	     22.75135425	     89.95437384	      0.00000000	      0.00000000	      5.44356587	     13.86308126	     22.36197482	     47.07213022	     89.95437384	      0.00000000	      0.00000000
      0.58000000	     -0.03133013	     -0.27155988	      4.25182241	     -0.20921744	      0.88952851	     -1.05485326	     27.78635924	     -2.99022212	    -12.85869641	    -44.76714358	     -0.78133405	      5.44373599	    -16.47451285	     20.95819366	      2.06536176	      1.27564313	     12.11150919	    -24.59535868	     -0.42926999	     14.29592107	      0.33283817	     -0.86711417	     -6.52130582	     -1.76634792	    -11.12851494	     -6.21449817	     -6.98989485	    -11.55400502	     22.32136697	     89.95437384	      0.00000000	      0.00000000	      5.53932561	     14.31858751	     22.44177598	     48.39889189	     89.95437384	      0.00000000	      0.00000000
      0.59000000	      0.08367247	     -0.41261427	      4.73422476	     -0.19914858	      0.88919955	     -1.05540914	     27.68557479	     -2.94036573	    -13.45049696	    -41.29047281	     -0.72065470	      5.15638828	    -16.09430141	     20.72140001	      1.12539643	      1.63941837	     12.41801149	    -24.37021003	     -0.42534040	     14.24597790	     -0.48276254	     -1.63483107	     -6.63241587	     -1.53461441	    -11.85529735	     -6.43110006	     -6.91746687	    -12.22995551	     21.66800032	     89.95437384	      0.00000000	      0.00000000	      5.70760985	     14.60208442	     22.75728158	     49.67788664	     89.95437384	      0.00000000	      0.00000000
